<svg width="269" height="360" viewBox="0 0 269 360" fill="none" xmlns="http://www.w3.org/2000/svg">
<g clip-path="url(#clip0_2301_7801)">
<path d="M249.947 51.3475V51.7089C218.093 54.0352 188.477 67.5405 165.691 90.3277C151.619 104.399 141.09 121.076 134.544 139.275C127.998 121.076 117.468 104.399 103.397 90.3277C80.6103 67.5405 50.9951 54.0347 19.1407 51.7089V51.3475H3.4751V184.505H19.1407V67.4309C46.8056 69.7243 72.494 81.579 92.3198 101.404C114.497 123.583 126.711 153.094 126.711 184.505H142.377C142.377 153.094 154.591 123.583 176.768 101.404C196.594 81.579 222.282 69.7243 249.947 67.4309V184.505H265.612V51.3475H249.947Z" fill="#00D4E6"/>
<path d="M11.308 216.011C17.0759 216.011 21.7517 211.336 21.7517 205.568C21.7517 199.8 17.0759 195.124 11.308 195.124C5.54007 195.124 0.864258 199.8 0.864258 205.568C0.864258 211.336 5.54007 216.011 11.308 216.011Z" fill="#00D4E6"/>
<path d="M257.779 216.011C263.547 216.011 268.223 211.336 268.223 205.568C268.223 199.8 263.547 195.124 257.779 195.124C252.011 195.124 247.335 199.8 247.335 205.568C247.335 211.336 252.011 216.011 257.779 216.011Z" fill="#00D4E6"/>
</g>
<path d="M249.947 359.264V358.902C218.093 356.576 188.477 343.071 165.691 320.284C151.619 306.213 141.09 289.536 134.544 271.337C127.998 289.536 117.468 306.212 103.397 320.284C80.6103 343.071 50.9951 356.577 19.1407 358.902V359.264H3.4751V226.106H19.1407V343.18C46.8056 340.887 72.494 329.032 92.3198 309.207C114.497 287.029 126.711 257.517 126.711 226.106H142.377C142.377 257.517 154.591 287.029 176.768 309.207C196.594 329.032 222.282 340.887 249.947 343.18V226.106H265.613V359.264H249.947Z" fill="#00D4E6"/>
<defs>
<clipPath id="clip0_2301_7801">
<rect width="267.359" height="267.359" fill="white" transform="translate(0.864258 -0.00012207)"/>
</clipPath>
</defs>
</svg>
